# xmcd
#
# Track frame offsets:
#	150
#	15427
#	33610
#	51044
#	66364
#	87033
#	101713
#	114177
#	126856
#	147799
#	163872
#	180977
#	194383
#	213138
#	227810
#
# Disc length: 3271 seconds
#
# Revision: 0
# Processed by: cddbd v1.5.2PL0 Copyright (c) Steve Scherf et al.
# Submitted via: audiograbber 1.83.01
#
DISCID=c40cc50f
DTITLE=Sound Choice - 701's and 80's Country - Vol. 5 SC8426
DYEAR=1900
DGENRE=Karaoke
TTITLE0=Hank Williams Jr. - Wiskey Bent And Hell Bound
TTITLE1=Alabama - Can't Keep A Good Man Down
TTITLE2=Earl Thomas Conley - Once In A Blue Moon
TTITLE3=Ed Bruce - Nights
TTITLE4=Moe Brandy - Americana
TTITLE5=John Anderson - Wild And Blue
TTITLE6=Lynn Anderson - Listen To A Country Song
TTITLE7=Emmylou Harris - If I Could Only Win Your Love
TTITLE8=The Bellamy Brothers - When I'm Away From You
TTITLE9=Roy Clark - Honeymoon Feelin'
TTITLE10=Glen Campbell - A Lady Like You
TTITLE11=Patsy Cline - Always
TTITLE12=John Conlee - Friday Night Blues
TTITLE13=Tanya Tucker - It's Only Over For You
TTITLE14=Johnny Paycheck - Someone To Give My Love To
EXTD=
EXTT0=
EXTT1=
EXTT2=
EXTT3=
EXTT4=
EXTT5=
EXTT6=
EXTT7=
EXTT8=
EXTT9=
EXTT10=
EXTT11=
EXTT12=
EXTT13=
EXTT14=
PLAYORDER=
